<?xml version="1.0" standalone="no"?>
<!DOCTYPE svg PUBLIC "-//W3C//DTD SVG 20010904//EN"
 "http://www.w3.org/TR/2001/REC-SVG-20010904/DTD/svg10.dtd">
<svg version="1.0" xmlns="http://www.w3.org/2000/svg"
 width="1536.000000pt" height="1024.000000pt" viewBox="0 0 1536.000000 1024.000000"
 preserveAspectRatio="xMidYMid meet">

<g transform="translate(0.000000,1024.000000) scale(0.100000,-0.100000)"
fill="#000000" stroke="none">
<path d="M5368 6713 c6 -2 18 -2 25 0 6 3 1 5 -13 5 -14 0 -19 -2 -12 -5z"/>
<path d="M5293 6703 c9 -2 23 -2 30 0 6 3 -1 5 -18 5 -16 0 -22 -2 -12 -5z"/>
<path d="M5228 6693 c6 -2 18 -2 25 0 6 3 1 5 -13 5 -14 0 -19 -2 -12 -5z"/>
<path d="M5178 6683 c6 -2 18 -2 25 0 6 3 1 5 -13 5 -14 0 -19 -2 -12 -5z"/>
<path d="M5138 6673 c7 -3 16 -2 19 1 4 3 -2 6 -13 5 -11 0 -14 -3 -6 -6z"/>
<path d="M5045 6650 c-13 -5 -14 -9 -5 -9 8 0 24 4 35 9 13 5 14 9 5 9 -8 0
-24 -4 -35 -9z"/>
<path d="M4950 6620 c-18 -12 -2 -12 25 0 13 6 15 9 5 9 -8 0 -22 -4 -30 -9z"/>
<path d="M4820 6570 c-8 -5 -10 -10 -5 -10 6 0 17 5 25 10 8 5 11 10 5 10 -5
0 -17 -5 -25 -10z"/>
<path d="M5342 6460 c0 -14 2 -19 5 -12 2 6 2 18 0 25 -3 6 -5 1 -5 -13z"/>
<path d="M4522 6393 c-24 -24 -24 -25 -2 -8 42 33 44 35 37 35 -4 0 -19 -12
-35 -27z"/>
<path d="M5331 6404 c0 -11 3 -14 6 -6 3 7 2 16 -1 19 -3 4 -6 -2 -5 -13z"/>
<path d="M5321 6354 c0 -11 3 -14 6 -6 3 7 2 16 -1 19 -3 4 -6 -2 -5 -13z"/>
<path d="M4399 6283 c-63 -66 -144 -159 -98 -113 52 52 182 190 178 190 -2 0
-38 -35 -80 -77z"/>
<path d="M2920 6213 c0 -406 93 -753 274 -1026 47 -71 183 -227 199 -228 7 -1
17 -1 24 0 6 1 14 -3 18 -9 4 -6 -1 -7 -12 -3 -14 5 -13 0 7 -21 13 -14 30
-24 38 -21 7 2 10 0 7 -5 -9 -15 144 -112 166 -105 9 3 20 1 24 -4 4 -7 -1 -8
-12 -4 -12 4 -15 3 -8 -4 19 -20 180 -85 270 -109 116 -31 124 -31 117 2 -3
19 -7 23 -14 12 -7 -9 -8 -7 -3 8 7 26 -34 196 -45 189 -5 -3 -6 3 -3 13 10
41 -175 471 -197 457 -5 -3 -8 0 -5 7 6 16 -92 171 -104 164 -5 -3 -21 11 -36
32 l-26 37 30 -35 c17 -19 31 -31 31 -26 0 14 -61 86 -70 81 -4 -2 -16 5 -26
18 l-19 22 23 -19 c12 -11 22 -15 22 -9 0 12 -215 222 -258 252 -18 13 -31 25
-29 28 13 12 253 -134 293 -178 19 -21 39 -26 28 -6 -5 8 -3 8 9 -2 9 -7 15
-17 12 -21 -7 -11 20 -31 30 -22 5 4 5 2 2 -4 -8 -13 66 -87 77 -77 4 4 5 1 2
-7 -3 -9 12 -34 36 -60 22 -25 38 -37 34 -27 -4 11 -2 16 5 12 6 -4 8 -13 5
-21 -6 -17 52 -107 64 -99 5 3 12 0 16 -6 5 -8 3 -9 -6 -4 -16 10 -18 14 56
-130 62 -120 109 -238 140 -350 l17 -60 32 155 c65 310 147 540 270 750 18 30
20 37 6 20 -56 -68 -148 -272 -212 -470 -21 -63 -38 -110 -38 -103 -1 7 10 48
24 93 24 75 26 108 4 95 -5 -3 -6 1 -3 9 3 9 -2 17 -15 21 -12 3 -18 11 -15
17 5 7 -4 9 -25 6 -31 -4 -31 -4 -33 41 l-1 46 -6 -45 -7 -45 -13 45 c-19 65
-89 200 -103 197 -6 -1 -20 13 -30 31 -11 17 -17 32 -14 32 3 0 13 -14 21 -31
9 -17 19 -29 21 -26 6 6 -43 87 -52 87 -3 0 -2 -5 2 -12 4 -7 3 -8 -4 -4 -6 4
-9 12 -6 19 2 7 -4 22 -16 32 -11 10 -20 14 -20 10 0 -5 -11 2 -25 15 -14 13
-25 28 -25 34 0 6 11 -2 25 -19 13 -16 24 -25 25 -19 0 5 -16 26 -37 45 -20
18 -32 27 -28 19 8 -13 7 -13 -8 -1 -18 15 -23 26 -7 16 15 -9 12 4 -4 21 -18
17 -30 18 -20 2 5 -9 2 -9 -9 1 -20 16 -23 25 -4 15 6 -4 -6 12 -28 35 -49 51
-72 55 -24 4 l34 -38 -37 34 c-20 19 -36 38 -35 44 3 17 -133 105 -258 166
-154 76 -320 128 -457 146 l-48 6 0 -128z m17 -60 c-2 -32 -3 -6 -3 57 0 63 1
89 3 58 2 -32 2 -84 0 -115z m50 161 c-3 -3 -12 -4 -19 -1 -8 3 -5 6 6 6 11 1
17 -2 13 -5z m98 -14 c13 -5 14 -9 5 -9 -8 0 -24 4 -35 9 -13 5 -14 9 -5 9 8
0 24 -4 35 -9z m132 -36 c30 -9 53 -18 50 -20 -2 -2 -30 4 -63 15 -72 23 -63
27 13 5z m183 -74 c19 -11 31 -19 25 -19 -5 0 -26 8 -45 19 -19 11 -30 19 -25
19 6 0 26 -8 45 -19z m185 -103 c6 -6 -17 4 -50 22 -33 18 -64 38 -70 44 -5 5
17 -5 50 -23 33 -18 65 -38 70 -43z m-638 -114 c-2 -21 -4 -4 -4 37 0 41 2 58
4 38 2 -21 2 -55 0 -75z m684 80 c13 -16 12 -17 -3 -4 -10 7 -18 15 -18 17 0
8 8 3 21 -13z m-674 -170 c-3 -10 -5 -4 -5 12 0 17 2 24 5 18 2 -7 2 -21 0
-30z m10 -55 c-3 -8 -6 -5 -6 6 -1 11 2 17 5 13 3 -3 4 -12 1 -19z m10 -60
c-3 -7 -5 -2 -5 12 0 14 2 19 5 13 2 -7 2 -19 0 -25z m513 -43 c19 -19 32 -35
29 -35 -3 0 -20 16 -39 35 -19 19 -32 35 -29 35 3 0 20 -16 39 -35z m110 25
c0 -5 -2 -10 -4 -10 -3 0 -8 5 -11 10 -3 6 -1 10 4 10 6 0 11 -4 11 -10z m431
-151 c16 -34 29 -63 27 -65 -2 -2 -18 26 -36 61 -17 36 -30 65 -27 65 3 0 19
-27 36 -61z m-1004 -21 c-3 -8 -6 -5 -6 6 -1 11 2 17 5 13 3 -3 4 -12 1 -19z
m1053 -93 c0 -5 -5 -3 -10 5 -5 8 -10 20 -10 25 0 6 5 3 10 -5 5 -8 10 -19 10
-25z m-1011 -20 c0 -5 -4 -3 -9 5 -5 8 -9 22 -9 30 0 16 17 -16 18 -35z m729
-170 c-3 -3 -9 2 -12 12 -6 14 -5 15 5 6 7 -7 10 -15 7 -18z m192 -35 c6 -11
8 -20 6 -20 -3 0 -10 9 -16 20 -6 11 -8 20 -6 20 3 0 10 -9 16 -20z m-121
-115 c0 -5 -6 1 -14 15 -8 14 -14 30 -14 35 0 6 6 -1 14 -15 8 -14 14 -29 14
-35z m298 -27 c-3 -8 -6 -5 -6 6 -1 11 2 17 5 13 3 -3 4 -12 1 -19z m-856 -45
c13 -16 12 -17 -3 -4 -17 13 -22 21 -14 21 2 0 10 -8 17 -17z m40 -50 c13 -16
12 -17 -3 -4 -17 13 -22 21 -14 21 2 0 10 -8 17 -17z m598 -78 c0 -5 -6 1 -14
15 -8 14 -14 30 -14 35 0 6 6 -1 14 -15 8 -14 14 -29 14 -35z m178 -37 c-3 -7
-5 -2 -5 12 0 14 2 19 5 13 2 -7 2 -19 0 -25z"/>
<path d="M5312 6300 c0 -14 2 -19 5 -12 2 6 2 18 0 25 -3 6 -5 1 -5 -13z"/>
<path d="M5302 6235 c0 -16 2 -22 5 -12 2 9 2 23 0 30 -3 6 -5 -1 -5 -18z"/>
<path d="M4835 6148 l-40 -43 43 40 c39 36 47 45 39 45 -2 0 -21 -19 -42 -42z"/>
<path d="M5291 6164 c0 -11 3 -14 6 -6 3 7 2 16 -1 19 -3 4 -6 -2 -5 -13z"/>
<path d="M4673 6078 c-45 -46 -92 -96 -105 -113 -48 -60 -80 -105 -75 -105 2
0 24 26 48 58 23 31 83 99 133 150 49 50 88 92 85 92 -3 0 -41 -37 -86 -82z"/>
<path d="M5282 6090 c0 -14 2 -19 5 -12 2 6 2 18 0 25 -3 6 -5 1 -5 -13z"/>
<path d="M4769 6073 l-24 -28 28 24 c25 23 32 31 24 31 -2 0 -14 -12 -28 -27z"/>
<path d="M4209 6029 c-16 -34 -29 -63 -27 -65 2 -2 18 26 36 61 17 36 30 65
27 65 -3 0 -19 -27 -36 -61z"/>
<path d="M5271 6024 c0 -11 3 -14 6 -6 3 7 2 16 -1 19 -3 4 -6 -2 -5 -13z"/>
<path d="M4719 6013 c-13 -16 -12 -17 4 -4 9 7 17 15 17 17 0 8 -8 3 -21 -13z"/>
<path d="M4680 5960 c-12 -16 -19 -30 -16 -30 2 0 14 14 26 30 12 17 19 30 16
30 -2 0 -14 -13 -26 -30z"/>
<path d="M5262 5965 c0 -16 2 -22 5 -12 2 9 2 23 0 30 -3 6 -5 -1 -5 -18z"/>
<path d="M4166 5935 c-9 -26 -7 -32 5 -12 6 10 9 21 6 23 -2 3 -7 -2 -11 -11z"/>
<path d="M5252 5905 c0 -16 2 -22 5 -12 2 9 2 23 0 30 -3 6 -5 -1 -5 -18z"/>
<path d="M4643 5908 c-20 -26 -26 -41 -15 -34 12 7 36 46 29 46 -3 0 -9 -6
-14 -12z"/>
<path d="M4151 5884 c0 -11 3 -14 6 -6 3 7 2 16 -1 19 -3 4 -6 -2 -5 -13z"/>
<path d="M10415 5861 c-83 -23 -160 -68 -214 -122 -145 -144 -184 -404 -89
-593 94 -188 299 -282 551 -255 131 15 236 58 310 127 l27 26 0 213 0 213
-210 0 -210 0 0 -95 0 -95 103 0 104 0 -5 -72 c-2 -40 -9 -79 -14 -86 -20 -23
-117 -44 -192 -40 -176 9 -276 120 -276 309 0 138 73 251 181 283 99 30 221
13 298 -40 l36 -25 38 43 c21 24 50 58 65 77 l26 33 -24 21 c-43 34 -142 76
-210 86 -96 16 -226 12 -295 -8z"/>
<path d="M11491 5864 c-171 -46 -306 -186 -342 -355 -18 -83 -6 -252 22 -319
88 -210 280 -322 525 -306 244 15 429 165 475 384 15 75 6 233 -17 292 -60
150 -181 260 -333 302 -81 22 -251 23 -330 2z m271 -190 c64 -21 122 -75 155
-142 25 -51 28 -67 28 -157 -1 -83 -4 -107 -22 -141 -33 -63 -66 -97 -119
-124 -42 -21 -62 -25 -144 -25 -107 0 -149 16 -207 77 -56 58 -78 121 -78 223
0 102 22 164 78 224 71 75 201 102 309 65z"/>
<path d="M5242 5850 c0 -14 2 -19 5 -12 2 6 2 18 0 25 -3 6 -5 1 -5 -13z"/>
<path d="M5768 5863 c-17 -4 -18 -36 -18 -479 l0 -474 110 0 110 0 0 316 0
315 47 -68 c25 -37 76 -108 113 -158 72 -98 233 -320 269 -373 l23 -33 96 3
97 3 0 475 0 475 -110 0 -110 0 -3 -293 -2 -294 -54 79 c-29 43 -79 115 -112
159 -32 45 -103 142 -156 216 l-97 135 -93 0 c-51 1 -101 -1 -110 -4z"/>
<path d="M6812 5861 c-11 -6 -13 -74 -10 -347 3 -325 4 -341 26 -396 72 -180
272 -268 517 -228 144 23 267 124 305 248 19 62 20 90 18 397 l-3 330 -110 0
-110 0 -5 -325 c-4 -292 -7 -329 -24 -363 -35 -71 -104 -102 -207 -95 -43 3
-66 11 -93 32 -73 55 -70 43 -76 416 l-5 335 -105 3 c-58 1 -111 -2 -118 -7z"/>
<path d="M7797 5863 c-4 -3 -7 -46 -7 -95 l0 -88 140 0 140 0 2 -382 3 -383
110 0 110 0 3 383 2 382 145 0 146 0 -3 93 -3 92 -391 3 c-215 1 -393 -1 -397
-5z"/>
<path d="M8712 5862 c-10 -7 -12 -109 -10 -478 l3 -469 113 -3 112 -3 0 166 0
165 83 0 83 0 53 -77 c30 -43 80 -117 113 -165 l60 -88 119 0 c89 0 119 3 118
13 0 6 -53 86 -118 177 l-119 165 41 18 c23 10 60 33 83 53 98 80 129 237 71
356 -45 93 -118 141 -246 164 -84 15 -537 19 -559 6z m528 -192 c65 -33 89
-114 54 -181 -26 -51 -87 -71 -236 -77 l-128 -5 0 140 c0 77 3 143 7 146 3 4
64 5 134 2 104 -3 135 -8 169 -25z"/>
<path d="M9692 5862 c-10 -7 -12 -109 -10 -478 l3 -469 115 0 115 0 0 475 0
475 -105 3 c-58 1 -111 -2 -118 -6z"/>
<path d="M4587 5818 c-85 -147 -146 -296 -206 -505 -37 -128 -119 -465 -141
-582 -5 -25 -12 -54 -15 -63 -4 -10 -3 -18 3 -18 24 0 172 63 167 71 -4 5 1 6
9 3 26 -10 301 156 301 181 0 6 42 51 93 101 51 50 91 97 89 105 -2 8 -2 11 0
7 3 -4 15 5 28 20 15 16 24 21 25 13 0 -8 -52 -65 -115 -128 -126 -125 -137
-145 -26 -45 90 80 213 245 281 373 28 55 50 102 48 105 -3 2 -25 -38 -51 -89
-48 -96 -120 -203 -134 -200 -4 1 -16 -6 -25 -14 -10 -9 -18 -11 -18 -5 0 6 5
14 10 17 18 11 11 23 -10 18 -16 -4 -20 0 -21 18 -1 13 -1 27 -1 31 2 14 -28
16 -42 3 -12 -13 -15 -13 -20 0 -3 8 -1 15 4 15 6 0 10 6 10 13 -1 6 -10 1
-20 -12 -17 -20 -23 -21 -22 -1 0 3 -7 12 -16 20 -14 13 -15 12 -9 -3 3 -9 1
-19 -5 -23 -7 -4 -8 -3 -4 4 5 8 -2 13 -21 14 -47 2 -51 3 -60 12 -4 5 -3 6 4
2 9 -5 11 -2 6 10 -4 10 -8 13 -10 7 -3 -7 -11 -9 -19 -6 -7 3 -11 10 -7 16 3
6 1 7 -5 3 -16 -10 -15 -12 9 -35 15 -14 17 -21 8 -26 -8 -5 -10 -4 -5 3 4 7
3 12 -3 12 -5 0 -16 6 -23 13 -32 29 -62 51 -51 37 10 -13 6 -15 -24 -16 -31
-1 -33 0 -15 10 20 11 20 11 -4 23 -24 11 -41 2 -29 -17 3 -6 -1 -7 -10 -4 -9
4 -13 9 -10 12 2 3 -5 12 -17 20 -19 14 -20 16 -4 27 15 11 15 13 1 19 -9 3
-13 2 -10 -4 3 -6 -1 -10 -9 -10 -19 0 -21 11 -4 28 8 8 9 12 1 12 -7 0 -19
-25 -28 -56 -9 -31 -19 -53 -22 -50 -13 13 85 280 153 414 39 78 70 142 69
142 -2 0 -14 -19 -28 -42z m-145 -490 c-15 -15 -26 -4 -18 18 5 13 9 15 18 6
9 -9 9 -15 0 -24z m-73 -143 c-13 -41 -24 -73 -26 -71 -2 2 6 43 19 91 13 48
24 80 26 71 2 -8 -7 -49 -19 -91z m-32 -107 c-3 -8 -6 -5 -6 6 -1 11 2 17 5
13 3 -3 4 -12 1 -19z m353 -172 c0 -2 -8 -10 -17 -17 -16 -13 -17 -12 -4 4 13
16 21 21 21 13z"/>
<path d="M4473 5838 c-15 -20 -25 -38 -20 -38 3 0 12 11 21 25 17 26 16 35 -1
13z"/>
<path d="M4132 5810 c0 -14 2 -19 5 -12 2 6 2 18 0 25 -3 6 -5 1 -5 -13z"/>
<path d="M5226 5784 c-4 -20 -5 -38 -3 -40 3 -3 8 11 11 32 4 20 5 38 3 40 -3
3 -8 -11 -11 -32z"/>
<path d="M4122 5760 c0 -14 2 -19 5 -12 2 6 2 18 0 25 -3 6 -5 1 -5 -13z"/>
<path d="M4113 5675 c0 -33 2 -45 4 -27 2 18 2 45 0 60 -2 15 -4 0 -4 -33z"/>
<path d="M5211 5714 c0 -11 3 -14 6 -6 3 7 2 16 -1 19 -3 4 -6 -2 -5 -13z"/>
<path d="M5177 5608 c-34 -107 -27 -114 8 -8 15 45 25 83 22 86 -2 3 -16 -32
-30 -78z"/>
<path d="M4102 5560 c0 -19 2 -27 5 -17 2 9 2 25 0 35 -3 9 -5 1 -5 -18z"/>
<path d="M4145 5500 c-3 -5 -1 -10 4 -10 6 0 11 5 11 10 0 6 -2 10 -4 10 -3 0
-8 -4 -11 -10z"/>
<path d="M5136 5495 c-9 -26 -7 -32 5 -12 6 10 9 21 6 23 -2 3 -7 -2 -11 -11z"/>
<path d="M4728 5273 c7 -3 16 -2 19 1 4 3 -2 6 -13 5 -11 0 -14 -3 -6 -6z"/>
<path d="M4921 5233 c12 -3 15 -11 11 -25 -4 -15 -2 -19 7 -14 7 5 10 11 7 14
-3 3 -2 10 4 16 6 8 1 12 -18 13 -15 0 -20 -1 -11 -4z"/>
<path d="M4895 5209 c-4 -6 -5 -13 -2 -16 7 -7 27 6 27 18 0 12 -17 12 -25 -2z"/>
</g>
</svg>
